<svg width="305" height="52" viewBox="0 0 305 52" fill="none" xmlns="http://www.w3.org/2000/svg">
<g clip-path="url(#clip0_144_2)">
<rect x="7" y="10" width="7" height="36" rx="3" fill="#212121"/>
<rect x="17" y="5" width="7" height="41" rx="3" fill="#212121"/>
<rect x="37" y="3" width="7" height="43" rx="3" fill="#212121"/>
<rect x="27" width="7" height="46" rx="3" fill="#212121"/>
<rect x="49.7603" y="14.3174" width="5.42938" height="54.5398" rx="2.71469" transform="rotate(67.9075 49.7603 14.3174)" fill="#212121"/>
<path d="M79.2 43L91.488 9.4H97.92L110.208 43H104.112L94.656 16.12L85.2 43H79.2ZM84.672 35.08L86.208 30.52H102.768L104.304 35.08H84.672ZM118.67 43V9.4H130.766C133.454 9.4 135.678 9.864 137.438 10.792C139.198 11.688 140.51 12.904 141.374 14.44C142.238 15.976 142.67 17.736 142.67 19.72C142.67 21.576 142.254 23.288 141.422 24.856C140.59 26.392 139.294 27.64 137.534 28.6C135.774 29.528 133.518 29.992 130.766 29.992H124.43V43H118.67ZM124.43 25.288H130.43C132.702 25.288 134.334 24.792 135.326 23.8C136.318 22.776 136.814 21.416 136.814 19.72C136.814 17.96 136.318 16.584 135.326 15.592C134.334 14.6 132.702 14.104 130.43 14.104H124.43V25.288ZM151.479 43V9.4H157.239V43H151.479ZM175.994 43V12.184H165.914V9.4H189.434V12.184H179.354V43H175.994ZM192.491 43L204.875 9.4H208.331L220.715 43H217.163L206.603 13.816L195.995 43H192.491ZM198.155 33.928L199.163 31.144H213.995L215.003 33.928H198.155ZM229.897 43V9.4H233.257V40.264H249.145V43H229.897ZM258.675 43V9.4H262.035V40.264H277.923V43H258.675ZM290.879 43V29.896L280.031 9.4H283.823L293.135 27.928H291.983L301.247 9.4H304.991L294.239 29.896V43H290.879Z" fill="#212121"/>
</g>
<defs>
<clipPath id="clip0_144_2">
<rect width="305" height="52" fill="white"/>
</clipPath>
</defs>
</svg>
