<svg width="128" height="128" viewBox="0 0 128 128" fill="none" xmlns="http://www.w3.org/2000/svg">
<circle cx="64" cy="64" r="46" fill="#0B9797"/>
<path d="M56.2546 36H66.5777V83.7827C61.2821 84.7881 57.394 85.1903 53.1713 85.1903C40.5692 85.1903 34 79.4933 34 68.5661C34 58.0422 40.9718 51.205 51.7637 51.205C53.4394 51.205 54.7129 51.3394 56.255 51.7407L56.2546 36ZM56.2546 60.0522C55.0481 59.6505 54.0426 59.5164 52.7691 59.5164C47.5405 59.5164 44.5238 62.7342 44.5238 68.3641C44.5238 73.8617 47.4064 76.8779 52.7021 76.8779C53.8411 76.8779 54.7799 76.8109 56.2546 76.6107V60.0522Z" fill="white"/>
<path d="M83 51.9414V75.873C83 84.1174 82.3967 88.072 80.587 91.4913C78.9109 94.7761 76.6985 96.8531 72.1406 99.1325L62.5547 94.5742C67.1131 92.4293 69.325 90.5538 70.7326 87.6699C72.2076 84.7211 72.6773 81.3014 72.6773 72.3192V51.9414H83ZM72.6773 36.0549H83V46.6466H72.6773V36.0549Z" fill="white"/>
</svg>
