<svg width="128" height="128" viewBox="0 0 128 128" fill="none" xmlns="http://www.w3.org/2000/svg">
<path d="M40.8333 102.936C36.5202 99.5432 31.9193 96.2906 28.7754 91.7106C22.16 83.6339 17.0664 74.2829 13.5842 64.4561C11.4795 58.0662 10.7587 51.2155 8.04537 45.0726C5.207 40.6109 8.53176 35.7336 13.4189 34.3154C15.5948 33.8978 19.4207 31.8454 14.8025 33.3123C10.6621 36.35 10.2614 30.5549 14.507 30.188C17.4045 29.8028 18.4711 27.4309 17.4802 25.2956C14.37 23.2674 25.0222 21.0383 19.6624 18.0119C14.079 11.988 27.4724 10.8284 24.168 17.6697C23.3771 22.9303 33.5268 16.7055 31.1718 22.7804C33.5654 25.6978 40.1351 23.4444 39.9721 27.5372C43.4589 27.7769 44.6556 30.7107 47.9287 30.9359C51.3211 32.4679 57.4708 33.6751 58.6252 37.4978C55.2596 40.1624 47.4661 31.994 47.0917 39.3697C48.1084 50.2653 47.8494 61.4891 51.8358 71.865C53.7213 78.1476 58.2923 83.0933 62.4204 87.9865C66.3702 92.7787 71.7203 96.1523 77.1734 98.993C81.9569 101.249 87.1141 102.745 92.3273 103.684C94.4418 102.067 98.1749 96.0539 101.473 98.5894C101.63 101.438 94.9264 104.545 101.158 104.23C104.817 103.126 107.355 107.06 110.369 103.512C113.145 106.8 121.907 101.411 119.932 108.132C117.261 109.855 113.366 108.814 110.69 111.185C106.279 108.981 102.767 113.156 97.884 112.628C92.4608 113.599 86.9437 113.991 81.4455 114C72.4254 113.287 63.2142 112.987 54.6332 109.846C49.7993 108.442 45.0819 105.689 40.8333 102.936ZM48.4512 106.236C53.1715 108.278 57.787 110.429 62.96 111.078C71.1671 112.219 79.6424 113.975 87.8789 112.374C84.1512 110.69 80.2973 113.029 76.5836 111.17C72.1295 112.128 67.3497 110.926 62.8216 110.334C57.6724 108.04 52.1155 106.463 47.2934 103.486C41.2681 101.285 50.4097 106.308 52.0368 106.715C55.8034 108.853 47.8948 105.619 46.7798 104.73C43.6251 102.96 43.223 103.33 46.4674 105.127C47.1209 105.51 47.7667 105.911 48.4512 106.236ZM39.4695 99.8889C44.0436 101.583 39.4494 96.6723 37.3534 96.9576C36.4247 95.3466 33.8054 94.3288 35.6531 93.4634C32.3295 94.6172 32.1715 89.0757 30.6093 89.8674C27.0932 88.7572 29.2408 84.8242 25.0525 82.4089C24.6702 79.8639 20.8913 77.6565 19.686 73.8178C19.1537 71.8523 15.4167 66.2083 17.7123 71.4609C19.667 76.5175 23.106 80.8478 25.9679 85.1732C28.1902 89.2915 30.8142 93.5956 34.8614 96.1646C36.2257 97.4733 37.5429 99.4786 39.4695 99.8889ZM26.2927 85.4218C27.1293 86.9168 26.4524 84.731 26.2927 85.4218ZM44.9473 101.92C45.9602 101.466 43.4909 101.348 44.9473 101.92ZM47.4303 102.826C47.1732 101.575 46.2969 103.525 47.4303 102.826ZM50.5383 104.122C52.018 102.713 48.258 103.234 50.5383 104.122ZM55.8652 107.091C56.7643 105.762 52.9875 106.589 55.8652 107.091ZM45.6361 99.9603C47.9344 98.4735 42.6677 99.9397 45.6361 99.9603ZM47.9677 101.123C47.9025 100.337 47.1367 101.475 47.9677 101.123ZM59.6206 108.396C61.4939 109.578 70.5597 110.987 64.8829 108.881C63.933 109.081 54.3565 106.172 59.6206 108.396ZM41.1212 93.9883C40.9391 93.2 38.2135 93.118 41.1212 93.9883ZM46.5461 97.1499C47.9579 96.1652 43.6157 96.3904 46.5461 97.1499ZM51.1091 99.9477C53.1351 99.1839 47.8225 99.1803 51.1091 99.9477ZM38.9138 91.5841C41.1119 93.2699 47.7788 91.8001 42.2802 90.5778C39.7775 89.2438 34.137 88.3306 37.9817 91.3822L38.9138 91.5841ZM54.1997 100.914C55.1153 99.3538 50.36 100.023 54.1997 100.914ZM49.5548 97.2222C54.9298 98.7427 45.0349 93.8231 48.2286 96.6627L48.9365 96.983L49.5548 97.2222ZM58.8675 102.605C54.2696 101.903 63.958 102.653 58.8675 102.605ZM36.9551 88.6389C36.7563 87.6907 35.6989 88.7184 36.9551 88.6389ZM67.4784 107.435C67.6142 105.722 65.8172 108.709 67.4784 107.435ZM45.6422 93.9588C45.3343 93.0571 44.0517 93.922 45.6422 93.9588ZM37.4379 88.044C40.3604 87.8685 33.4369 86.7563 37.4379 88.044ZM27.7188 81.7617C27.3551 80.3608 24.5387 79.2434 27.7188 81.7617ZM53.2337 97.9542C52.982 98.0878 52.6985 97.3438 53.2337 97.9542ZM69.1151 107.7C69.0642 106.767 68.2502 108.053 69.1151 107.7ZM51.8282 96.5028C52.1141 95.3009 49.3363 96.1389 51.8282 96.5028ZM39.9969 89.0046C42.171 88.7718 36.514 87.5348 39.9969 89.0046ZM60.0107 101.441C63.3988 100.099 56.7085 100.785 60.0107 101.441ZM49.6004 94.374C53.5051 94.8775 44.9543 91.7181 48.7436 94.0913L49.6004 94.374ZM61.8757 103.186C65.5213 101.007 64.3194 108.29 68.0606 103.801C71.751 101.107 64.8736 107.133 69.4219 104.282C72.7112 102.082 77.5695 105.325 80.6387 106.383C82.8459 106.274 84.9916 108.291 87.2543 107.064C91.61 105.891 78.7368 105.324 82.1113 103.243C78.1258 104.402 75.1811 101.86 73.22 99.3068C68.7494 98.2745 63.5804 95.9889 61.3492 92.0325C60.4395 90.5471 62.6634 92.2418 60.5639 89.8136C57.87 87.4176 56.5249 84.6977 54.7165 81.7852C52.5561 80.6327 52.3044 77.2404 52.086 81.6715C52.1032 78.8749 49.4777 76.9927 48.8369 77.7751C48.8254 75.0819 51.6466 76.4319 49.6717 74.4392C49.2466 71.6478 47.8469 68.7391 47.4262 65.5875C46.7726 64.0683 47.3342 60.8145 45.1954 64.2536C44.4161 67.8883 44.9367 59.7871 46.1485 62.4586C47.6766 59.8395 45.7413 60.0327 45.5086 60.3876C45.4991 60.4021 45.4924 60.4169 45.4889 60.4317C45.4955 60.417 45.5021 60.4023 45.5086 60.3876C46.5202 58.0903 46.1388 54.8772 45.2186 56.1139C45.7707 53.6761 46.0908 47.1423 44.3923 48.3002C45.4219 45.7511 46.3449 36.6358 41.8754 40.1112C40.064 40.1366 36.9272 40.7687 35.4444 41.5061C40.0935 44.0688 34.9768 42.4316 33.0843 42.0243C32.8377 44.3956 30.9632 43.37 28.6214 43.3933C32.3618 43.856 26.8 47.2188 24.6542 45.9125C21.8675 47.2444 27.0593 50.569 24.7102 51.597C24.9989 53.1467 20.4409 51.0373 20.7989 54.6162C18.0935 53.4781 20.4263 58.8616 21.7798 57.0409C26.3812 58.2862 25.0191 61.1254 25.1362 63.8224C24.3865 65.394 21.4348 60.1284 24.4788 60.3723C22.0773 56.4711 21.8223 58.9622 19.8268 60.7745C19.3625 60.9061 24.917 63.3532 21.4313 64.5631C24.498 65.0363 24.5853 67.72 25.2096 69.4183C27.0529 71.3381 26.6756 67.2983 28.8811 69.6056C27.4855 67.5501 21.4884 63.814 26.3168 65.0123C26.291 62.9435 25.4436 61.2753 26.9229 61.3158C28.3878 58.6628 25.3887 67.8569 28.6907 64.4852C29.6047 64.086 29.8311 61.8288 31.4741 64.6983C33.8604 67.0459 32.3361 68.747 28.9699 66.5975C29.5721 68.6405 33.473 69.3706 32.7399 72.5655C33.517 75.3755 34.6043 74.3405 35.552 74.1781C36.2955 76.9083 36.7177 74.9007 36.7529 73.6015C40.157 74.3302 39.3596 76.3424 40.4247 77.7482C42.7704 78.807 37.0673 70.5715 41.0944 75.2719C44.9854 78.7849 43.0698 80.4184 39.786 80.187C39.4942 80.1665 40.487 79.6636 40.1766 79.6135C40.5054 79.587 39.5083 80.096 39.786 80.187C41.5414 80.7622 42.4749 83.318 45.0738 83.2134C47.8187 84.5192 49.6772 89.5347 44.9458 87.4469C43.3047 85.9673 37.4975 84.1419 42.2407 86.9564C46.6215 88.985 50.1009 90.1987 54.326 92.7452C57.3498 94.9038 58.6562 97.3762 59.8023 97.8657C57.2609 99.0795 52.1436 96.8964 55.9435 96.2273C53.5734 95.7956 50.9076 94.597 53.1778 97.55C55.1082 99.1618 60.0169 98.991 60.8968 99.1737C60.1509 100.817 58.8708 100.948 60.9274 101.075C58.633 102.298 61.6631 102.487 61.8757 103.186ZM57.184 89.9368C55.7881 88.477 55.4272 85.7427 56.9361 88.1219C57.7099 88.4326 59.4149 92.5902 57.184 89.9368ZM73.7587 99.1748C74.6293 99.1184 73.784 99.8363 73.7587 99.1748ZM56.2754 85.8898C56.7803 87.5921 56.2219 83.6827 56.2754 85.8898ZM54.7569 83.8466C56.9703 84.8074 53.0011 80.4541 54.7569 83.8466ZM36.3544 71.1453C37.3859 70.8702 36.8619 72.9094 36.3544 71.1453ZM51.0004 79.0839C51.7448 81.08 51.6339 76.705 51.0004 79.0839ZM40.6534 71.8892C42.1791 73.1204 39.924 70.5765 40.6534 71.8892ZM48.2378 75.2034C46.5744 71.4767 49.4155 73.1678 48.6059 75.8142L48.2378 75.2034ZM32.9244 64.9909C32.1807 63.7682 30.9505 60.1808 31.3466 59.0856C31.7049 60.8692 35.1395 66.7613 33.0314 61.5264C30.7017 57.1381 35.8161 62.9508 36.3422 64.0453C36.5872 65.1341 34.9049 63.7478 36.0448 66.3008C33.966 63.3941 34.8176 67.9064 32.9244 64.9909ZM29.4872 61.2621C30.5706 63.2115 29.682 58.4193 29.4872 61.2621ZM25.1996 58.5011C23.4376 56.7502 22.1625 55.1362 25.282 57.4144C26.484 57.4613 22.6114 53.7441 25.5715 56.234C28.6841 56.8015 27.1085 61.3375 25.1996 58.5011ZM29.185 57.9632C30.2083 56.9492 29.7282 58.9614 29.185 57.9632ZM30.8402 58.4938C32.7229 59.7129 29.2889 55.5861 30.8402 58.4938ZM26.2543 55.817C21.1321 51.2585 32.6908 58.2006 27.0912 56.6621L26.2543 55.817ZM40.9304 64.3441C38.7138 63.015 40.343 54.9876 41.0989 60.4778C43.2538 59.7807 40.98 63.3132 42.5872 63.2805C42.3339 65.5093 41.6149 66.3105 40.9304 64.3441ZM47.6543 67.0848C48.1118 68.7388 47.8716 64.6655 47.6543 67.0848ZM46.7114 66.1531C46.9554 65.1196 46.7366 67.3702 46.7114 66.1531ZM27.2592 54.319C23.9684 49.7788 36.8229 58.9116 29.3668 55.4706C28.5877 55.2668 27.6503 55.1941 27.2592 54.319ZM39.0078 59.3937C39.7033 60.0274 38.6964 55.5707 39.0078 59.3937ZM46.9442 64.4848C47.5584 62.3072 46.99 65.9253 46.9442 64.4848ZM27.7632 52.5863C29.719 52.1679 35.8684 56.0211 30.2213 53.6869C29.5939 52.9923 28.2563 53.3079 27.7632 52.5863ZM44.5583 60.957C44.7674 57.048 45.7259 58.622 44.5655 61.5165L44.5583 60.957ZM29.2191 51.226C30.016 50.0571 27.1037 45.9411 29.6389 49.7496C30.7344 50.62 32.8106 51.2078 30.9775 51.5739C33.8605 54.1173 30.2743 52.2631 29.2191 51.226ZM45.0231 59.2684C45.5736 54.8154 45.5086 61.8773 45.0231 59.2684ZM28.8503 46.6455C29.459 46.3854 29.1717 47.4566 28.8503 46.6455ZM32.6347 48.898C34.4314 51.1773 33.6087 46.8544 32.6347 48.898ZM43.3097 54.8364C43.5111 55.9781 43.2994 54.0515 43.3097 54.8364ZM42.6913 53.4674C44.0695 55.4027 41.2097 49.8121 42.6913 53.4674ZM41.7816 51.0708C42.6269 52.9684 41.5329 49.5604 41.7816 51.0708ZM41.9666 49.1317C40.9499 47.34 43.2506 41.236 43.5073 45.0216C42.4342 47.9713 43.1977 49.6214 43.9463 45.6651C45.3288 42.5514 43.6477 51.8094 41.9666 49.1317ZM44.7836 39.5864C45.2268 39.0422 44.882 40.2421 44.7836 39.5864ZM42.2427 89.6542C42.3184 89.9889 41.6401 89.1282 42.2427 89.6542ZM47.4771 92.3021C50.3888 93.0491 50.3739 91.849 47.7424 91.4925C46.3269 90.1758 41.8608 88.7792 45.8582 91.3291C46.123 91.9998 46.9595 91.9841 47.4771 92.3021ZM37.1394 85.4358C38.7434 86.6319 43.1813 88.8258 39.4245 85.8911C40.6912 84.4195 37.0001 83.6361 38.2245 82.6517C35.1102 80.7461 35.7678 80.9156 37.9496 80.9755C34.2068 79.3026 38.4899 79.4277 38.2882 78.5705C36.845 78.2854 31.1198 76.0257 34.4879 78.7561C31.064 77.0104 33.672 79.4064 32.6371 79.1531C29.136 78.1985 35.7551 81.8197 32.0811 80.9208C34.0897 82.5125 37.4876 84.998 32.9303 82.6052C32.3298 83.4696 36.1915 84.7797 37.1394 85.4358ZM42.6139 88.5809C49.2704 90.7259 39.3505 85.9603 42.6139 88.5809ZM70.6384 105.558C70.7242 104.238 69.7286 106.685 70.6384 105.558ZM73.5188 106.77C75.0545 105.282 73.5816 109.141 76.0635 106.406C76.0904 104.448 75.9871 103.292 73.2113 105.67C72.4461 106.095 72.1045 107.899 73.5188 106.77ZM27.7958 78.0555C27.3241 76.2014 24.4897 76.211 27.7958 78.0555ZM30.8715 80.071C29.7294 78.1772 26.7963 78.3565 30.8715 80.071ZM48.3694 90.6236C50.0778 92.141 56.2157 91.737 50.4443 90.8103C49.5896 89.5465 45.0166 89.8506 48.3694 90.6236ZM72.4232 105.479C75.0525 103.272 69.8757 106.463 72.4232 105.479ZM77.8916 109.237C77.908 108.529 76.7583 109.547 77.8916 109.237ZM77.9 108.245C75.0787 108.428 80.8116 105.16 77.9 108.245ZM20.2309 71.7223C17.7493 68.1815 18.6883 66.5899 16.2951 63.6988C15.8421 61.488 12.1897 56.4711 14.406 61.7861C16.4361 64.8946 17.0393 69.7074 20.2309 71.7223ZM76.9867 107.265C82.3434 103.802 74.7879 105.757 76.9867 107.265ZM81.0759 108.867C83.7584 106.563 79.379 108.385 81.0759 108.867ZM26.8841 74.1417C27.6518 72.9996 24.9014 73.9956 26.8841 74.1417ZM80.222 107.773C82.8193 106.098 79.6236 106.355 79.7513 107.927L80.222 107.773ZM44.9733 85.5555C44.884 84.4247 43.6018 85.6515 44.9733 85.5555ZM47.1517 86.8089C46.4594 85.4093 46.0873 87.0288 47.1517 86.8089ZM84.3897 108.905C87.7171 106.504 82.3726 108.445 83.6912 109.359L84.3897 108.905ZM83.1155 108.289C85.8261 106.017 80.2537 109.295 83.1155 108.289ZM89.6256 112.624C91.4455 111.405 87.4145 112.23 89.6256 112.624ZM28.5533 73.3181C30.9928 73.8647 38.3024 79.3261 33.99 73.6958C31.7814 73.042 33.106 67.6433 30.8532 68.5988C32.3653 71.1248 32.0973 72.2 28.9226 70.6075C24.9325 68.6597 26.6803 71.5727 27.4601 72.3755C26.3974 72.617 28.8657 73.2978 28.5533 73.3181ZM17.4386 64.5404C17.8754 62.734 13.4172 54.6027 15.3334 60.466C16.0251 61.6943 15.9548 64.022 17.4386 64.5404ZM37.8387 77.1175C37.779 76.9688 36.5825 76.0669 37.8387 77.1175ZM40.9322 77.8374C40.9306 75.9239 37.5128 77.0604 40.9322 77.8374ZM67.7396 94.737C65.7185 94.7067 67.2283 93.4296 67.7396 94.737ZM69.0269 95.6773C68.8368 94.9456 68.2842 95.8186 69.0269 95.6773ZM79.6524 102.37C80.6744 101.615 78.3772 102.274 79.6524 102.37ZM22.9905 65.9578C25.9135 64.8261 19.8586 65.1508 22.9905 65.9578ZM65.3796 92.6632C65.3471 90.7709 63.5162 93.1327 65.3796 92.6632ZM21.8356 63.2665C23.7132 62.6323 20.0986 62.8488 21.8356 63.2665ZM27.2854 65.9065C27.2514 65.2845 26.709 66.1419 27.2854 65.9065ZM93.7576 106.668C96.172 106.179 101.674 107.897 102.563 106.028C99.6313 105.957 92.4192 103.959 92.0779 106.505L92.7198 106.606L93.7576 106.668ZM29.0175 66.343C29.0595 64.4254 27.5222 66.2714 29.0175 66.343ZM14.6885 56.4032C14.0377 52.7498 12.2135 55.8503 14.6885 56.4032ZM18.1054 57.2621C18.1474 56.089 14.9779 56.2065 18.1054 57.2621ZM20.0581 58.2211C19.6163 58.7987 19.4937 57.7639 20.0581 58.2211ZM32.3448 66.103C32.9232 65.5716 30.9754 65.7094 32.3448 66.103ZM18.7575 56.0582C18.4273 53.2988 14.7999 55.6447 18.7575 56.0582ZM11.7522 51.5127C11.6526 50.2392 11.0695 51.9931 11.7522 51.5127ZM12.7942 50.7258C12.6242 49.2157 11.8996 50.9179 12.7942 50.7258ZM18.5516 54.1624C20.9862 53.2061 14.1171 52.1843 18.0542 53.9818L18.5516 54.1624ZM95.6056 101.757C97.1638 100.329 93.6251 101.316 95.6056 101.757ZM104.914 106.583C105.539 104.736 103.342 106.826 104.914 106.583ZM19.14 51.1448C19.3965 49.358 17.2099 51.4996 19.14 51.1448ZM10.9486 45.6566C10.5086 43.1341 10.5688 38.7062 14.7778 40.2026C9.15948 41.3181 18.6663 47.1856 17.4658 42.553C19.8281 42.6686 22.0871 41.1568 20.8474 43.4511C25.5019 42.937 28.7289 38.9009 33.2249 39.4664C36.7271 39.003 40.5562 38.6515 44.3303 37.2418C47.4332 37.0182 50.4203 33.6774 48.7194 31.6972C44.4879 31.3392 40.0583 31.8686 35.3813 32.7983C30.1985 33.8757 25.4908 35.9227 20.2615 36.8014C15.1645 37.4861 21.2868 38.6879 19.8268 38.9556C17.167 39.8785 22.9987 40.5008 19.4819 41.4737C17.3101 41.0607 15.0494 40.3145 15.9771 38.0257C11.0946 38.6593 6.80423 40.6857 10.6617 45.6543L10.9486 45.6566ZM22.7138 39.6647C23.8586 35.4474 28.847 43.135 24.5902 40.2248C24.0817 39.8443 23.2455 39.5339 22.7138 39.6647ZM22.9365 37.62C24.5888 36.3891 23.8149 38.3101 22.9365 37.62ZM25.0345 37.6533C25.1837 35.7127 29.8372 38.6807 25.8018 38.3519L25.0345 37.6533ZM27.9044 36.4995C28.9524 35.2749 28.2056 37.5887 27.9044 36.4995ZM28.6385 36.0078C30.3836 33.911 38.521 34.6696 32.5647 35.8034C30.9682 34.6014 29.7444 36.5121 28.6385 36.0078ZM39.2581 34.3708C44.534 36.4062 38.9926 28.6434 39.2581 34.3708ZM42.2713 34.3544C43.373 31.4676 46.5464 33.196 42.7811 33.7743C42.8629 34.0815 42.6707 35.2645 42.2713 34.3544ZM17.9518 49.6631C21.2434 47.6475 14.4574 47.9144 17.9518 49.6631ZM20.3856 50.3394C21.5397 49.1123 17.878 49.8417 20.3856 50.3394ZM13.2145 45.25C15.0953 43.8052 10.9888 44.7007 13.2145 45.25ZM110.409 106.055C110.463 104.378 108.971 106.81 110.409 106.055ZM100.533 99.3149C100.813 97.385 99.2634 99.4832 100.533 99.3149ZM113.125 106.705C115.754 106.714 121.092 105.888 115.371 105.891C114.473 106.031 110.139 106.001 113.125 106.705ZM22.5264 49.1565C24.6547 49.0103 25.8561 46.8089 22.1148 46.9355C16.3165 46.3352 27.2307 48.9209 21.371 48.1815C20.5837 48.7029 22.4807 49.3008 22.5264 49.1565ZM24.4008 50.1052C24.1786 48.7388 23.7427 50.8311 24.4008 50.1052ZM26.6241 44.1765C27.5477 43.031 25.3462 43.8703 26.6241 44.1765ZM19.5463 32.3456C23.0273 31.1614 27.6806 29.843 29.8141 32.233C30.0086 32.4509 30.1821 32.6995 30.3319 32.9819C30.1219 32.7291 29.9505 32.4768 29.8141 32.233C28.7657 30.3586 29.7937 28.9922 31.3192 31.8344C33.4606 34.6892 34.6626 31.3874 33.8481 29.804C33.7355 29.5849 33.5843 29.3988 33.3916 29.2664C33.543 29.4545 33.6962 29.6343 33.8481 29.804C35.5097 31.6594 37.0311 32.3069 34.6013 29.4083C37.4832 25.9417 28.8309 29.8622 26.8643 29.8227C25.9181 30.2474 17.0956 32.0727 19.5463 32.3456Z" fill="#0B9797"/>
<path d="M39.4695 99.8889C44.0436 101.583 39.4494 96.6723 37.3534 96.9576C36.4247 95.3466 33.8054 94.3288 35.6531 93.4634C32.3295 94.6172 32.1715 89.0757 30.6093 89.8674C27.0932 88.7572 29.2408 84.8242 25.0525 82.4089C24.6702 79.8639 20.8913 77.6565 19.686 73.8178C19.1537 71.8523 15.4167 66.2083 17.7123 71.4609C19.667 76.5175 23.106 80.8478 25.9679 85.1732C28.1902 89.2915 30.8142 93.5956 34.8614 96.1646C36.2257 97.4733 37.5429 99.4786 39.4695 99.8889Z" fill="#0B9797"/>
<path d="M48.4512 106.236C53.1715 108.278 57.787 110.429 62.96 111.078C71.1671 112.219 79.6424 113.975 87.8789 112.374C84.1512 110.69 80.2973 113.029 76.5836 111.17C72.1295 112.128 67.3497 110.926 62.8216 110.334C57.6724 108.04 52.1155 106.463 47.2934 103.486C41.2681 101.285 50.4097 106.308 52.0368 106.715C55.8034 108.853 47.8948 105.619 46.7798 104.73C43.6251 102.96 43.223 103.33 46.4674 105.127C47.1209 105.51 47.7667 105.911 48.4512 106.236Z" fill="#0B9797"/>
<path d="M20.2309 71.7223C17.7493 68.1815 18.6883 66.5899 16.2951 63.6988C15.8421 61.488 12.1897 56.4711 14.406 61.7861C16.4361 64.8946 17.0393 69.7074 20.2309 71.7223Z" fill="#0B9797"/>
<path d="M17.4386 64.5404C17.8754 62.734 13.4172 54.6027 15.3334 60.466C16.0251 61.6943 15.9548 64.022 17.4386 64.5404Z" fill="#0B9797"/>
<path d="M59.6206 108.396C61.4939 109.578 70.5597 110.987 64.8829 108.881C63.933 109.081 54.3565 106.172 59.6206 108.396Z" fill="#0B9797"/>
<path fill-rule="evenodd" clip-rule="evenodd" d="M40.8333 102.936C36.5202 99.5432 31.9193 96.2906 28.7754 91.7106C22.16 83.6339 17.0664 74.2829 13.5842 64.4561C11.4795 58.0662 10.7587 51.2155 8.04537 45.0726C5.207 40.6109 8.53176 35.7336 13.4189 34.3154C15.5948 33.8978 19.4207 31.8454 14.8025 33.3123C10.6621 36.35 10.2614 30.5549 14.507 30.188C17.4045 29.8028 18.4711 27.4309 17.4802 25.2956C14.37 23.2674 25.0222 21.0383 19.6624 18.0119C14.079 11.988 27.4724 10.8284 24.168 17.6697C23.3771 22.9303 33.5268 16.7055 31.1718 22.7804C33.5654 25.6978 40.1351 23.4444 39.9721 27.5372C43.4589 27.7769 44.6556 30.7107 47.9287 30.9359C51.3211 32.4679 57.4708 33.6751 58.6252 37.4978C55.2596 40.1624 47.4661 31.994 47.0917 39.3697C48.1084 50.2653 47.8494 61.4891 51.8358 71.865C53.7213 78.1476 58.2923 83.0933 62.4204 87.9865C66.3702 92.7787 71.7203 96.1523 77.1734 98.993C81.9569 101.249 87.1141 102.745 92.3273 103.684C94.4418 102.067 98.1749 96.0539 101.473 98.5894C101.63 101.438 94.9264 104.545 101.158 104.23C104.817 103.126 107.355 107.06 110.369 103.512C113.145 106.8 121.907 101.411 119.932 108.132C117.261 109.855 113.366 108.814 110.69 111.185C106.279 108.981 102.767 113.156 97.884 112.628C92.4608 113.599 86.9437 113.991 81.4455 114C72.4254 113.287 63.2142 112.987 54.6332 109.846C49.7993 108.442 45.0819 105.689 40.8333 102.936ZM62.96 111.078C57.787 110.429 53.1715 108.278 48.4512 106.236C47.7667 105.911 47.1209 105.51 46.4674 105.127C43.223 103.33 43.6251 102.96 46.7798 104.73C47.8948 105.619 55.8034 108.853 52.0368 106.715C50.4097 106.308 41.2681 101.285 47.2934 103.486C52.1155 106.463 57.6724 108.04 62.8216 110.334C67.3497 110.926 72.1295 112.128 76.5836 111.17C80.2973 113.029 84.1512 110.69 87.8789 112.374C79.6424 113.975 71.1671 112.219 62.96 111.078ZM37.3534 96.9576C39.4494 96.6723 44.0436 101.583 39.4695 99.8889C37.5429 99.4786 36.2257 97.4733 34.8614 96.1646C30.8142 93.5956 28.1902 89.2915 25.9679 85.1732C23.106 80.8478 19.667 76.5175 17.7123 71.4609C15.4167 66.2083 19.1537 71.8523 19.686 73.8178C20.8913 77.6565 24.6702 79.8639 25.0525 82.4089C29.2408 84.8242 27.0932 88.7572 30.6093 89.8674C32.1715 89.0757 32.3295 94.6172 35.6531 93.4634C33.8054 94.3288 36.4247 95.3466 37.3534 96.9576ZM59.6206 108.396C61.4939 109.578 70.5597 110.987 64.8829 108.881C63.933 109.081 54.3565 106.172 59.6206 108.396ZM42.2802 90.5778C47.7788 91.8001 41.1119 93.2699 38.9138 91.5841L37.9817 91.3822C34.137 88.3306 39.7775 89.2438 42.2802 90.5778ZM48.2286 96.6627C45.0349 93.8231 54.9298 98.7427 49.5548 97.2222L48.9365 96.983L48.2286 96.6627ZM49.6004 94.374C53.5051 94.8775 44.9543 91.7181 48.7436 94.0913L49.6004 94.374ZM68.0606 103.801C64.3194 108.29 65.5213 101.007 61.8757 103.186C61.6631 102.487 58.633 102.298 60.9274 101.075C58.8708 100.948 60.1509 100.817 60.8968 99.1737C60.0169 98.991 55.1082 99.1618 53.1778 97.55C50.9076 94.597 53.5734 95.7956 55.9435 96.2273C52.1436 96.8964 57.2609 99.0795 59.8023 97.8657C58.6562 97.3762 57.3498 94.9038 54.326 92.7452C50.1009 90.1987 46.6215 88.985 42.2407 86.9564C37.4975 84.1419 43.3047 85.9673 44.9458 87.4469C49.6772 89.5347 47.8187 84.5192 45.0738 83.2134C42.4749 83.318 41.5414 80.7622 39.786 80.187C39.4942 80.1665 40.487 79.6636 40.1766 79.6135C40.5054 79.587 39.5083 80.096 39.786 80.187C43.0698 80.4184 44.9854 78.7849 41.0944 75.2719C37.0673 70.5715 42.7704 78.807 40.4247 77.7482C39.3596 76.3424 40.157 74.3302 36.7529 73.6015C36.7177 74.9007 36.2955 76.9083 35.552 74.1781C34.6043 74.3405 33.517 75.3755 32.7399 72.5655C33.473 69.3706 29.5721 68.6405 28.9699 66.5975C32.3361 68.747 33.8604 67.0459 31.4741 64.6983C29.8311 61.8288 29.6047 64.086 28.6907 64.4852C25.3887 67.8569 28.3878 58.6628 26.9229 61.3158C25.4436 61.2753 26.291 62.9435 26.3168 65.0123C21.4884 63.814 27.4855 67.5501 28.8811 69.6056C26.6756 67.2983 27.0529 71.3381 25.2096 69.4183C24.5853 67.72 24.498 65.0363 21.4313 64.5631C24.917 63.3532 19.3625 60.9061 19.8268 60.7745C21.8223 58.9622 22.0773 56.4711 24.4788 60.3723C21.4348 60.1284 24.3865 65.394 25.1362 63.8224C25.0191 61.1254 26.3812 58.2862 21.7798 57.0409C20.4263 58.8616 18.0935 53.4781 20.7989 54.6162C20.4409 51.0373 24.9989 53.1467 24.7102 51.597C27.0593 50.569 21.8675 47.2444 24.6542 45.9125C26.8 47.2188 32.3618 43.856 28.6214 43.3933C30.9632 43.37 32.8377 44.3956 33.0843 42.0243C34.9768 42.4316 40.0935 44.0688 35.4444 41.5061C36.9272 40.7687 40.064 40.1366 41.8754 40.1112C46.3449 36.6358 45.4219 45.7511 44.3923 48.3002C46.0908 47.1423 45.7707 53.6761 45.2186 56.1139C46.1388 54.8772 46.5202 58.0903 45.5086 60.3876C45.7413 60.0327 47.6766 59.8395 46.1485 62.4586C44.9367 59.7871 44.4161 67.8883 45.1954 64.2536C47.3342 60.8145 46.7726 64.0683 47.4262 65.5875C47.8469 68.7391 49.2466 71.6478 49.6717 74.4392C51.6466 76.4319 48.8254 75.0819 48.8369 77.7751C49.4777 76.9927 52.1032 78.8749 52.086 81.6715C52.3044 77.2404 52.5561 80.6327 54.7165 81.7852C56.5249 84.6977 57.87 87.4176 60.5639 89.8136C62.6634 92.2418 60.4395 90.5471 61.3492 92.0325C63.5804 95.9889 68.7494 98.2745 73.22 99.3068C75.1811 101.86 78.1258 104.402 82.1113 103.243C78.7368 105.324 91.61 105.891 87.2543 107.064C84.9916 108.291 82.8459 106.274 80.6387 106.383C77.5695 105.325 72.7112 102.082 69.4219 104.282C64.8736 107.133 71.751 101.107 68.0606 103.801ZM47.7424 91.4925C50.3739 91.849 50.3888 93.0491 47.4771 92.3021C46.9595 91.9841 46.123 91.9998 45.8582 91.3291C41.8608 88.7792 46.3269 90.1758 47.7424 91.4925ZM39.4245 85.8911C43.1813 88.8258 38.7434 86.6319 37.1394 85.4358C36.1915 84.7797 32.3298 83.4696 32.9303 82.6052C37.4876 84.998 34.0897 82.5125 32.0811 80.9208C35.7551 81.8197 29.136 78.1985 32.6371 79.1531C33.672 79.4064 31.064 77.0104 34.4879 78.7561C31.1198 76.0257 36.845 78.2854 38.2882 78.5705C38.4899 79.4277 34.2068 79.3026 37.9496 80.9755C35.7678 80.9156 35.1102 80.7461 38.2245 82.6517C37.0001 83.6361 40.6912 84.4195 39.4245 85.8911ZM76.0635 106.406C73.5816 109.141 75.0545 105.282 73.5188 106.77C72.1045 107.899 72.4461 106.095 73.2113 105.67C75.9871 103.292 76.0904 104.448 76.0635 106.406ZM48.3694 90.6236C50.0778 92.141 56.2157 91.737 50.4443 90.8103C49.5896 89.5465 45.0166 89.8506 48.3694 90.6236ZM16.2951 63.6988C18.6883 66.5899 17.7493 68.1815 20.2309 71.7223C17.0393 69.7074 16.4361 64.8946 14.406 61.7861C12.1897 56.4711 15.8421 61.488 16.2951 63.6988ZM80.222 107.773C82.8193 106.098 79.6236 106.355 79.7513 107.927L80.222 107.773ZM84.3897 108.905C87.7171 106.504 82.3726 108.445 83.6912 109.359L84.3897 108.905ZM33.99 73.6958C38.3024 79.3261 30.9928 73.8647 28.5533 73.3181C28.8657 73.2978 26.3974 72.617 27.4601 72.3755C26.6803 71.5727 24.9325 68.6597 28.9226 70.6075C32.0973 72.2 32.3653 71.1248 30.8532 68.5988C33.106 67.6433 31.7814 73.042 33.99 73.6958ZM17.4386 64.5404C17.8754 62.734 13.4172 54.6027 15.3334 60.466C16.0251 61.6943 15.9548 64.022 17.4386 64.5404ZM102.563 106.028C101.674 107.897 96.172 106.179 93.7576 106.668L92.7198 106.606L92.0779 106.505C92.4192 103.959 99.6313 105.957 102.563 106.028ZM18.5516 54.1624C20.9862 53.2061 14.1171 52.1843 18.0542 53.9818L18.5516 54.1624ZM14.7778 40.2026C10.5688 38.7062 10.5086 43.1341 10.9486 45.6566L10.6617 45.6543C6.80423 40.6857 11.0946 38.6593 15.9771 38.0257C15.0494 40.3145 17.3101 41.0607 19.4819 41.4737C22.9987 40.5008 17.167 39.8785 19.8268 38.9556C21.2868 38.6879 15.1645 37.4861 20.2615 36.8014C25.4908 35.9227 30.1985 33.8757 35.3813 32.7983C40.0583 31.8686 44.4879 31.3392 48.7194 31.6972C50.4203 33.6774 47.4332 37.0182 44.3303 37.2418C40.5562 38.6515 36.7271 39.003 33.2249 39.4664C28.7289 38.9009 25.5019 42.937 20.8474 43.4511C22.0871 41.1568 19.8281 42.6686 17.4658 42.553C18.6663 47.1856 9.15948 41.3181 14.7778 40.2026ZM113.125 106.705C115.754 106.714 121.092 105.888 115.371 105.891C114.473 106.031 110.139 106.001 113.125 106.705ZM22.1148 46.9355C25.8561 46.8089 24.6547 49.0103 22.5264 49.1565C22.4807 49.3008 20.5837 48.7029 21.371 48.1815C27.2307 48.9209 16.3165 46.3352 22.1148 46.9355ZM26.8643 29.8227C28.8309 29.8622 37.4832 25.9417 34.6013 29.4083C37.0311 32.3069 35.5097 31.6594 33.8481 29.804C34.6626 31.3874 33.4606 34.6892 31.3192 31.8344C29.7937 28.9922 28.7657 30.3586 29.8141 32.233C30.0086 32.4509 30.1821 32.6995 30.3319 32.9819C30.1219 32.7291 29.9505 32.4768 29.8141 32.233C27.6806 29.843 23.0273 31.1614 19.5463 32.3456C17.0956 32.0727 25.9181 30.2474 26.8643 29.8227Z" fill="#0B9797"/>
<path d="M80.222 107.773C82.8193 106.098 79.6236 106.355 79.7513 107.927L80.222 107.773Z" fill="#0B9797"/>
<path d="M49.5548 97.2222C54.9298 98.7427 45.0349 93.8231 48.2286 96.6627L48.9365 96.983L49.5548 97.2222Z" fill="#0B9797"/>
<path d="M49.6004 94.374C53.5051 94.8775 44.9543 91.7181 48.7436 94.0913L49.6004 94.374Z" fill="#0B9797"/>
<path d="M47.4771 92.3021C50.3888 93.0491 50.3739 91.849 47.7424 91.4925C46.3269 90.1758 41.8608 88.7792 45.8582 91.3291C46.123 91.9998 46.9595 91.9841 47.4771 92.3021Z" fill="#0B9797"/>
<path d="M48.3694 90.6236C50.0778 92.141 56.2157 91.737 50.4443 90.8103C49.5896 89.5465 45.0166 89.8506 48.3694 90.6236Z" fill="#0B9797"/>
<path d="M22.5264 49.1565C24.6547 49.0103 25.8561 46.8089 22.1148 46.9355C16.3165 46.3352 27.2307 48.9209 21.371 48.1815C20.5837 48.7029 22.4807 49.3008 22.5264 49.1565Z" fill="#0B9797"/>
<path d="M18.5516 54.1624C20.9862 53.2061 14.1171 52.1843 18.0542 53.9818L18.5516 54.1624Z" fill="#0B9797"/>
<path d="M34.6013 29.4083C37.4832 25.9417 28.8309 29.8622 26.8643 29.8227C25.9181 30.2474 17.0956 32.0727 19.5463 32.3456C23.0273 31.1614 27.6806 29.843 29.8141 32.233C28.7657 30.3586 29.7937 28.9922 31.3192 31.8344C33.4606 34.6892 34.6626 31.3874 33.8481 29.804C33.6962 29.6343 33.543 29.4545 33.3916 29.2664C33.5843 29.3988 33.7355 29.5849 33.8481 29.804C35.5097 31.6594 37.0311 32.3069 34.6013 29.4083Z" fill="#0B9797"/>
<path d="M84.3897 108.905C87.7171 106.504 82.3726 108.445 83.6912 109.359L84.3897 108.905Z" fill="#0B9797"/>
<path d="M113.125 106.705C115.754 106.714 121.092 105.888 115.371 105.891C114.473 106.031 110.139 106.001 113.125 106.705Z" fill="#0B9797"/>
<path d="M93.7576 106.668C96.172 106.179 101.674 107.897 102.563 106.028C99.6313 105.957 92.4192 103.959 92.0779 106.505L92.7198 106.606L93.7576 106.668Z" fill="#0B9797"/>
<path d="M73.5188 106.77C75.0545 105.282 73.5816 109.141 76.0635 106.406C76.0904 104.448 75.9871 103.292 73.2113 105.67C72.4461 106.095 72.1045 107.899 73.5188 106.77Z" fill="#0B9797"/>
<path d="M38.9138 91.5841C41.1119 93.2699 47.7788 91.8001 42.2802 90.5778C39.7775 89.2438 34.137 88.3306 37.9817 91.3822L38.9138 91.5841Z" fill="#0B9797"/>
<path d="M37.1394 85.4358C38.7434 86.6319 43.1813 88.8258 39.4245 85.8911C40.6912 84.4195 37.0001 83.6361 38.2245 82.6517C35.1102 80.7461 35.7678 80.9156 37.9496 80.9755C34.2068 79.3026 38.4899 79.4277 38.2882 78.5705C36.845 78.2854 31.1198 76.0257 34.4879 78.7561C31.064 77.0104 33.672 79.4064 32.6371 79.1531C29.136 78.1985 35.7551 81.8197 32.0811 80.9208C34.0897 82.5125 37.4876 84.998 32.9303 82.6052C32.3298 83.4696 36.1915 84.7797 37.1394 85.4358Z" fill="#0B9797"/>
<path d="M28.5533 73.3181C30.9928 73.8647 38.3024 79.3261 33.99 73.6958C31.7814 73.042 33.106 67.6433 30.8532 68.5988C32.3653 71.1248 32.0973 72.2 28.9226 70.6075C24.9325 68.6597 26.6803 71.5727 27.4601 72.3755C26.3974 72.617 28.8657 73.2978 28.5533 73.3181Z" fill="#0B9797"/>
<path fill-rule="evenodd" clip-rule="evenodd" d="M61.8757 103.186C65.5213 101.007 64.3194 108.29 68.0606 103.801C71.751 101.107 64.8736 107.133 69.4219 104.282C72.7112 102.082 77.5695 105.325 80.6387 106.383C82.8459 106.274 84.9916 108.291 87.2543 107.064C91.61 105.891 78.7368 105.324 82.1113 103.243C78.1258 104.402 75.1811 101.86 73.22 99.3068C68.7494 98.2745 63.5804 95.9889 61.3492 92.0325C60.4395 90.5471 62.6634 92.2418 60.5639 89.8136C57.87 87.4176 56.5249 84.6977 54.7165 81.7852C52.5561 80.6327 52.3044 77.2404 52.086 81.6715C52.1032 78.8749 49.4777 76.9927 48.8369 77.7751C48.8254 75.0819 51.6466 76.4319 49.6717 74.4392C49.2466 71.6478 47.8469 68.7391 47.4262 65.5875C46.7726 64.0683 47.3342 60.8145 45.1954 64.2536C44.4161 67.8883 44.9367 59.7871 46.1485 62.4586C47.6766 59.8395 45.7413 60.0327 45.5086 60.3876L45.4889 60.4317C45.4924 60.4169 45.4991 60.4021 45.5086 60.3876C46.5202 58.0903 46.1388 54.8772 45.2186 56.1139C45.7707 53.6761 46.0908 47.1423 44.3923 48.3002C45.4219 45.7511 46.3449 36.6358 41.8754 40.1112C40.064 40.1366 36.9272 40.7687 35.4444 41.5061C40.0935 44.0688 34.9768 42.4316 33.0843 42.0243C32.8377 44.3956 30.9632 43.37 28.6214 43.3933C32.3618 43.856 26.8 47.2188 24.6542 45.9125C21.8675 47.2444 27.0593 50.569 24.7102 51.597C24.9989 53.1467 20.4409 51.0373 20.7989 54.6162C18.0935 53.4781 20.4263 58.8616 21.7798 57.0409C26.3812 58.2862 25.0191 61.1254 25.1362 63.8224C24.3865 65.394 21.4348 60.1284 24.4788 60.3723C22.0773 56.4711 21.8223 58.9622 19.8268 60.7745C19.3625 60.9061 24.917 63.3532 21.4313 64.5631C24.498 65.0363 24.5853 67.72 25.2096 69.4183C27.0529 71.3381 26.6756 67.2983 28.8811 69.6056C27.4855 67.5501 21.4884 63.814 26.3168 65.0123C26.291 62.9435 25.4436 61.2753 26.9229 61.3158C28.3878 58.6628 25.3887 67.8569 28.6907 64.4852C29.6047 64.086 29.8311 61.8288 31.4741 64.6983C33.8604 67.0459 32.3361 68.747 28.9699 66.5975C29.5721 68.6405 33.473 69.3706 32.7399 72.5655C33.517 75.3755 34.6043 74.3405 35.552 74.1781C36.2955 76.9083 36.7177 74.9007 36.7529 73.6015C40.157 74.3302 39.3596 76.3424 40.4247 77.7482C42.7704 78.807 37.0673 70.5715 41.0944 75.2719C44.9854 78.7849 43.0698 80.4184 39.786 80.187C41.5414 80.7622 42.4749 83.318 45.0738 83.2134C47.8187 84.5192 49.6772 89.5347 44.9458 87.4469C43.3047 85.9673 37.4975 84.1419 42.2407 86.9564C46.6215 88.985 50.1009 90.1987 54.326 92.7452C57.3498 94.9038 58.6562 97.3762 59.8023 97.8657C57.2609 99.0795 52.1436 96.8964 55.9435 96.2273C53.5734 95.7956 50.9076 94.597 53.1778 97.55C55.1082 99.1618 60.0169 98.991 60.8968 99.1737C60.1509 100.817 58.8708 100.948 60.9274 101.075C58.633 102.298 61.6631 102.487 61.8757 103.186ZM57.184 89.9368C55.7881 88.477 55.4272 85.7427 56.9361 88.1219C57.7099 88.4326 59.4149 92.5902 57.184 89.9368ZM48.2378 75.2034C46.5744 71.4767 49.4155 73.1678 48.6059 75.8142L48.2378 75.2034ZM31.3466 59.0856C30.9505 60.1808 32.1807 63.7682 32.9244 64.9909C34.8176 67.9064 33.966 63.3941 36.0448 66.3008C34.9049 63.7478 36.5872 65.1341 36.3422 64.0453C35.8161 62.9508 30.7017 57.1381 33.0314 61.5264C35.1395 66.7613 31.7049 60.8692 31.3466 59.0856ZM25.282 57.4144C22.1625 55.1362 23.4376 56.7502 25.1996 58.5011C27.1085 61.3375 28.6841 56.8015 25.5715 56.234C22.6114 53.7441 26.484 57.4613 25.282 57.4144ZM26.2543 55.817C21.1321 51.2585 32.6908 58.2006 27.0912 56.6621L26.2543 55.817ZM41.0989 60.4778C40.343 54.9876 38.7138 63.015 40.9304 64.3441C41.6149 66.3105 42.3339 65.5093 42.5872 63.2805C40.98 63.3132 43.2538 59.7807 41.0989 60.4778ZM27.2592 54.319C23.9684 49.7788 36.8229 58.9116 29.3668 55.4706C28.5877 55.2668 27.6503 55.1941 27.2592 54.319ZM27.7632 52.5863C29.719 52.1679 35.8684 56.0211 30.2213 53.6869C29.5939 52.9923 28.2563 53.3079 27.7632 52.5863ZM44.5583 60.957C44.7674 57.048 45.7259 58.622 44.5655 61.5165L44.5583 60.957ZM29.6389 49.7496C27.1037 45.9411 30.016 50.0571 29.2191 51.226C30.2743 52.2631 33.8605 54.1173 30.9775 51.5739C32.8106 51.2078 30.7344 50.62 29.6389 49.7496ZM43.5073 45.0216C43.2506 41.236 40.9499 47.34 41.9666 49.1317C43.6477 51.8094 45.3288 42.5514 43.9463 45.6651C43.1977 49.6214 42.4342 47.9713 43.5073 45.0216Z" fill="white"/>
<path fill-rule="evenodd" clip-rule="evenodd" d="M10.9486 45.6566C10.5086 43.1341 10.5688 38.7062 14.7778 40.2026C9.15948 41.3181 18.6663 47.1856 17.4658 42.553C19.8281 42.6686 22.0871 41.1568 20.8474 43.4511C25.5019 42.937 28.7289 38.9009 33.2249 39.4664C36.7271 39.003 40.5562 38.6515 44.3303 37.2418C47.4332 37.0182 50.4203 33.6774 48.7194 31.6972C44.4879 31.3392 40.0583 31.8686 35.3813 32.7983C30.1985 33.8757 25.4908 35.9227 20.2615 36.8014C15.1645 37.4861 21.2868 38.6879 19.8268 38.9556C17.167 39.8785 22.9987 40.5008 19.4819 41.4737C17.3101 41.0607 15.0494 40.3145 15.9771 38.0257C11.0946 38.6593 6.80423 40.6857 10.6617 45.6543L10.9486 45.6566ZM22.7138 39.6647C23.8586 35.4474 28.847 43.135 24.5902 40.2248C24.0817 39.8443 23.2455 39.5339 22.7138 39.6647ZM25.0345 37.6533C25.1837 35.7127 29.8372 38.6807 25.8018 38.3519L25.0345 37.6533ZM28.6385 36.0078C30.3836 33.911 38.521 34.6696 32.5647 35.8034C30.9682 34.6014 29.7444 36.5121 28.6385 36.0078ZM42.2713 34.3544C43.373 31.4676 46.5464 33.196 42.7811 33.7743C42.8629 34.0815 42.6707 35.2645 42.2713 34.3544Z" fill="#0B9797"/>
</svg>
