<svg width="128" height="128" viewBox="0 0 128 128" fill="none" xmlns="http://www.w3.org/2000/svg">
<path d="M101.869 23.3825C100.59 26.4501 98.9344 29.3468 96.9408 32.006C92.6725 27.5904 87.5619 24.0757 81.9114 21.67C76.2609 19.2643 70.1852 18.0164 64.0439 18.0002C57.9026 17.9839 51.8204 19.1997 46.1572 21.5754C40.4941 23.9512 35.3649 27.4388 31.0734 31.8318C26.7818 36.2248 23.415 41.434 21.1721 47.1511C18.9292 52.8682 17.8559 58.9771 18.0155 65.1164C18.1752 71.2556 19.5646 77.3005 22.1017 82.8933C24.6387 88.4861 28.2717 93.5132 32.7858 97.6772L34.4916 99.1934C40.9646 104.653 48.8224 108.214 57.1946 109.482C65.5668 110.751 74.1267 109.677 81.9265 106.381C89.7262 103.084 96.4614 97.6935 101.386 90.8051C106.311 83.9167 109.233 75.7996 109.829 67.3528C111.155 55.7917 107.649 41.0086 101.869 23.3825ZM39.4193 98.0562C38.9321 98.655 38.2783 99.0959 37.5406 99.3232C36.8028 99.5504 36.0143 99.5539 35.2746 99.3332C34.5349 99.1125 33.8772 98.6774 33.3847 98.083C32.8922 97.4886 32.5869 96.7615 32.5075 95.9937C32.428 95.2259 32.578 94.4517 32.9384 93.7691C33.2988 93.0864 33.8535 92.526 34.5324 92.1585C35.2112 91.791 35.9838 91.633 36.7524 91.7045C37.521 91.7759 38.2512 92.0736 38.8507 92.56C39.6366 93.2256 40.1346 94.1693 40.2406 95.1937C40.3465 96.2181 40.0523 97.2438 39.4193 98.0562ZM101.584 84.3155C90.3074 99.3829 66.0479 94.2657 50.6014 95.0238C50.6014 95.0238 47.8533 95.2133 45.1051 95.5924C45.1051 95.5924 46.1475 95.1186 47.4742 94.6448C58.372 90.8542 63.4893 90.0961 70.1227 86.6846C82.5367 80.3354 94.9508 66.4052 97.4146 52.0011C92.6764 65.8366 78.2724 77.7768 65.195 82.6098C56.1925 85.9265 39.9879 89.1485 39.9879 89.1485L39.3245 88.7694C28.332 83.3679 27.9529 59.4875 48.0428 51.8116C56.8558 48.4001 65.195 50.2954 74.7661 48.0211C84.9058 45.652 96.6565 38.0709 101.395 28.1207C106.701 44.1358 113.145 68.9638 101.584 84.3155Z" fill="#0B9797"/>
<path d="M101.584 84.3155C90.3074 99.3829 66.0479 94.2657 50.6014 95.0238C50.6014 95.0238 47.8533 95.2133 45.1051 95.5924C45.1051 95.5924 46.1475 95.1186 47.4742 94.6448C58.372 90.8542 63.4893 90.0961 70.1227 86.6846C82.5367 80.3354 94.9508 66.4052 97.4146 52.0011C92.6764 65.8366 78.2724 77.7768 65.195 82.6098C56.1925 85.9265 39.9879 89.1485 39.9879 89.1485L39.3245 88.7694C28.332 83.3679 27.9529 59.4875 48.0428 51.8116C56.8558 48.4001 65.195 50.2954 74.7661 48.0211C84.9058 45.652 96.6565 38.0709 101.395 28.1207C106.701 44.1358 113.145 68.9638 101.584 84.3155Z" fill="white"/>
<path d="M39.4193 98.0562C38.9321 98.655 38.2783 99.0959 37.5406 99.3232C36.8028 99.5504 36.0143 99.5539 35.2746 99.3332C34.5349 99.1125 33.8772 98.6774 33.3847 98.083C32.8922 97.4886 32.5869 96.7615 32.5075 95.9937C32.428 95.2259 32.578 94.4517 32.9384 93.7691C33.2988 93.0864 33.8535 92.526 34.5324 92.1585C35.2112 91.791 35.9838 91.633 36.7524 91.7045C37.521 91.7759 38.2512 92.0736 38.8507 92.56C39.6366 93.2256 40.1346 94.1693 40.2406 95.1937C40.3465 96.2181 40.0523 97.2438 39.4193 98.0562Z" fill="white"/>
</svg>
