<svg width="128" height="128" viewBox="0 0 128 128" fill="none" xmlns="http://www.w3.org/2000/svg">
<path d="M55.2084 39.7776C55.2084 39.7776 76.3995 15.7982 78.6301 16.3559C80.8608 16.9135 82.5338 49.8155 82.5338 49.8155C82.5338 49.8155 111.532 62.6417 110.974 64.8723C110.417 67.103 80.8608 78.8138 80.8608 78.8138C80.8608 78.8138 78.0725 110.043 75.8418 110.6C73.6112 111.158 52.9778 86.6211 52.9778 86.6211C52.9778 86.6211 22.8641 93.8707 21.1911 91.64C19.5181 89.4094 37.3633 62.6417 37.3633 62.6417C37.3633 62.6417 20.6334 35.3163 22.3064 33.0857C23.9794 30.855 55.2084 39.7776 55.2084 39.7776Z" fill="#0B9797"/>
<path d="M49.0741 7.4333C49.6318 9.10628 50.7471 25.5573 50.1894 25.8361C49.6318 25.8361 41.8245 10.7793 41.2669 9.10628C40.7092 7.4333 41.2669 4.645 44.0552 4.08734C46.8435 3.52968 48.5165 5.76032 49.0741 7.4333Z" fill="#0B9797"/>
<path d="M111.35 35.0312C109.896 36.0277 94.3867 41.6271 93.9651 41.1677C93.8117 40.6315 106.139 28.9823 107.594 27.9858C109.049 26.9892 111.883 26.7581 113.186 29.2853C114.49 31.8125 112.805 34.0347 111.35 35.0312Z" fill="#0B9797"/>
<path d="M104.343 101.773C102.914 100.74 92.405 88.0338 92.695 87.4819C93.1478 87.1563 108.276 94.8238 109.706 95.8566C111.135 96.8894 112.31 99.4789 110.372 101.559C108.433 103.64 105.773 102.805 104.343 101.773Z" fill="#0B9797"/>
<path d="M5.4668 58.6549C7.22822 58.5698 23.3691 61.9391 23.4869 62.5513C23.3363 63.0883 6.73043 66.5388 4.969 66.6239C3.20757 66.709 0.673514 65.4189 0.889652 62.5836C1.10579 59.7484 3.70538 58.74 5.4668 58.6549Z" fill="#0B9797"/>
</svg>
